<?xml version="1.0" encoding="UTF-8"?>
<svg id="Calque_1" data-name="Calque 1" xmlns="http://www.w3.org/2000/svg" viewBox="0 0 144 144">
  <defs>
    <style>
      .cls-1 {
        fill: #fff;
        fill-rule: evenodd;
      }
    </style>
  </defs>
  <path class="cls-1" d="M0,12.03C0,5.39,5.39,0,12.03,0h119.93c6.64-.01,12.03,5.36,12.04,12,0,0,0,.02,0,.03v119.93c0,6.64-5.37,12.04-12.02,12.04H12.03C5.39,144,0,138.61,0,131.97c0,0,0,0,0,0V12.03ZM57,54.9h19.5v9.79c2.81-5.63,10.01-10.7,20.83-10.7,20.74,0,25.66,11.21,25.66,31.78v38.11h-20.99v-33.42c0-11.72-2.81-18.33-9.96-18.33-9.92,0-14.04,7.13-14.04,18.33v33.42h-21s0-68.99,0-68.99ZM21,123h21V54h-21v68.99h0ZM45,31.5c.16,7.46-5.75,13.63-13.2,13.8-7.46.16-13.63-5.75-13.8-13.2,0-.2,0-.4,0-.59.16-7.46,6.34-13.37,13.8-13.2,7.22.16,13.04,5.98,13.2,13.2Z"/>
</svg>