<?xml version="1.0" encoding="UTF-8"?>
<svg id="Calque_1" data-name="Calque 1" xmlns="http://www.w3.org/2000/svg" viewBox="0 0 144 144">
  <defs>
    <style>
      .cls-1 {
        fill: #fff;
        fill-rule: evenodd;
      }
    </style>
  </defs>
  <path class="cls-1" d="M42.32.43C49.99.08,52.44,0,72,0s22.01.09,29.68.43,12.91,1.57,17.49,3.34c4.8,1.81,9.15,4.65,12.75,8.31,3.67,3.59,6.49,7.94,8.3,12.74,1.78,4.58,3,9.82,3.35,17.48.35,7.69.43,10.14.43,29.69s-.09,22.01-.43,29.68c-.35,7.66-1.57,12.89-3.35,17.48-1.81,4.8-4.64,9.16-8.3,12.76-3.6,3.67-7.95,6.49-12.75,8.3-4.58,1.78-9.82,3-17.48,3.35-7.68.35-10.13.43-29.69.43s-22.01-.09-29.68-.43c-7.66-.35-12.89-1.57-17.48-3.35-4.8-1.81-9.16-4.64-12.76-8.3-3.66-3.6-6.5-7.95-8.31-12.75-1.77-4.58-2.99-9.82-3.34-17.48-.35-7.69-.43-10.14-.43-29.69s.09-22.01.43-29.68c.35-7.67,1.57-12.91,3.34-17.49,1.81-4.8,4.65-9.16,8.31-12.75,3.59-3.66,7.94-6.5,12.74-8.31,4.58-1.77,9.82-2.99,17.48-3.34h0ZM101.09,13.39c-7.59-.35-9.87-.42-29.09-.42s-21.5.07-29.09.42c-7.02.32-10.83,1.49-13.37,2.48-3.36,1.31-5.76,2.86-8.28,5.38-2.39,2.32-4.23,5.15-5.38,8.28-.99,2.54-2.16,6.35-2.48,13.37-.35,7.59-.42,9.87-.42,29.09s.07,21.5.42,29.09c.32,7.02,1.49,10.83,2.48,13.37,1.15,3.12,2.99,5.96,5.38,8.28,2.32,2.39,5.16,4.23,8.28,5.38,2.54.99,6.35,2.16,13.37,2.48,7.59.35,9.86.42,29.09.42s21.5-.07,29.09-.42c7.02-.32,10.83-1.49,13.37-2.48,3.36-1.31,5.76-2.86,8.28-5.38,2.39-2.32,4.23-5.16,5.38-8.28.99-2.54,2.16-6.35,2.48-13.37.35-7.59.42-9.87.42-29.09s-.07-21.5-.42-29.09c-.32-7.02-1.49-10.83-2.48-13.37-1.31-3.36-2.86-5.76-5.38-8.28-2.32-2.39-5.15-4.23-8.28-5.38-2.54-.99-6.35-2.16-13.37-2.48ZM62.8,94.2c12.24,5.1,26.3-.7,31.4-12.94,3.74-9,1.68-19.36-5.22-26.24-9.38-9.38-24.59-9.37-33.97.01-9.38,9.38-9.37,24.59.01,33.97,2.23,2.23,4.87,3.99,7.78,5.2ZM45.83,45.83c14.45-14.45,37.88-14.45,52.34,0,14.45,14.45,14.45,37.88,0,52.34h0c-14.45,14.45-37.88,14.45-52.34,0-14.45-14.45-14.45-37.88,0-52.34h0ZM117.22,40.5c3.52-3.32,3.68-8.86.36-12.37-3.32-3.52-8.86-3.68-12.37-.36-.12.12-.24.24-.36.36-3.32,3.52-3.15,9.05.36,12.37,3.37,3.18,8.64,3.18,12.01,0Z"/>
</svg>