<?xml version="1.0" encoding="UTF-8"?>
<svg id="Calque_1" data-name="Calque 1" xmlns="http://www.w3.org/2000/svg" viewBox="0 0 144 144">
  <defs>
    <style>
      .cls-1 {
        fill: #fff;
      }
    </style>
  </defs>
  <path class="cls-1" d="M91.64,98.18c-1.67,0-3.35-.64-4.63-1.92l-15.01-15.01-15.01,15.01c-2.56,2.56-6.7,2.56-9.26,0-2.56-2.55-2.56-6.7,0-9.26l15.01-15.01-15.01-15.01c-2.56-2.55-2.56-6.7,0-9.26,2.56-2.56,6.7-2.56,9.26,0l15.01,15.01,15.01-15.01c2.56-2.56,6.7-2.56,9.26,0,2.56,2.55,2.56,6.7,0,9.26l-15.01,15.01,15.01,15.01c2.56,2.55,2.56,6.7,0,9.26-1.28,1.28-2.95,1.92-4.63,1.92Z"/>
  <path class="cls-1" d="M72,144C32.3,144,0,111.7,0,72S32.3,0,72,0s72,32.3,72,72-32.3,72-72,72ZM72,13.09c-32.48,0-58.91,26.43-58.91,58.91s26.42,58.91,58.91,58.91,58.91-26.43,58.91-58.91S104.48,13.09,72,13.09Z"/>
</svg>