<?xml version="1.0" encoding="UTF-8"?>
<svg id="Calque_1" data-name="Calque 1" xmlns="http://www.w3.org/2000/svg" viewBox="0 0 144 144">
  <defs>
    <style>
      .cls-1 {
        fill: #cfcfcf;
      }
    </style>
  </defs>
  <path class="cls-1" d="M99.29,116.71c-1.08,0-2.17-.41-2.99-1.24-1.65-1.65-1.65-4.34,0-5.99l33.24-33.24H4.24c-2.34,0-4.24-1.9-4.24-4.24s1.9-4.24,4.24-4.24h125.3l-33.24-33.24c-1.65-1.65-1.65-4.34,0-5.99,1.65-1.65,4.34-1.65,5.99,0l40.47,40.47s.02.02.03.03c0,0,0,0,0,0,0,0,0,0,0,0,.39.4.68.86.88,1.34.2.48.31,1.01.32,1.56h0v.11h0c0,.56-.12,1.08-.32,1.56-.2.49-.5.94-.88,1.34,0,0,0,0,0,0,0,0,0,0,0,0-.01.01-.02.02-.03.03l-40.47,40.47c-.83.83-1.91,1.24-2.99,1.24Z"/>
</svg>