<?xml version="1.0" encoding="UTF-8"?>
<svg id="Calque_1" data-name="Calque 1" xmlns="http://www.w3.org/2000/svg" viewBox="0 0 144 144">
  <defs>
    <style>
      .cls-1 {
        fill: #cfcfcf;
      }
    </style>
  </defs>
  <path class="cls-1" d="M120.7,12.18h-1.36c-2.37-7.07-9.05-12.18-16.9-12.18h-60.86c-7.86,0-14.53,5.11-16.9,12.18h-1.36c-9.84,0-17.84,8-17.84,17.84v7.55c0,11.15,6.12,21.31,15.97,26.53l6.25,3.31c6.65,15.33,21.02,26.57,38.18,28.75l-23.55,39.26c-1.05,1.75-1.08,3.93-.07,5.71s2.89,2.87,4.93,2.87h49.64c2.04,0,3.92-1.1,4.93-2.87,1.01-1.78.98-3.96-.07-5.71l-23.56-39.26c17.18-2.18,31.56-13.43,38.21-28.77l3.01-1.59c11.85-6.27,19.21-18.5,19.21-31.9v-3.87c0-9.84-8-17.84-17.84-17.84ZM16.79,37.57v-7.55c0-3.59,2.92-6.51,6.51-6.51h.42v24.77c0,1.33.06,2.65.17,3.95-4.44-3.5-7.11-8.86-7.1-14.65ZM86.81,132.67h-29.63l14.81-24.69,14.82,24.69ZM72,85.21c-20.37,0-36.94-16.57-36.94-36.94v-30.43c0-3.59,2.92-6.51,6.51-6.51h60.86c3.59,0,6.51,2.92,6.51,6.51v30.43c0,20.37-16.57,36.94-36.94,36.94ZM127.21,33.89c0,6.58-2.59,12.73-7.03,17.28.06-.96.1-1.92.1-2.9v-24.77h.42c3.59,0,6.51,2.92,6.51,6.51v3.87Z"/>
</svg>