<?xml version="1.0" encoding="UTF-8"?>
<svg id="Calque_1" data-name="Calque 1" xmlns="http://www.w3.org/2000/svg" viewBox="0 0 144 144">
  <defs>
    <style>
      .cls-1 {
        fill: #cfcfcf;
      }
    </style>
  </defs>
  <path class="cls-1" d="M122.64,144H27.31c-3.08,0-5.57-2.5-5.57-5.57v-5.95c0-9.63,7.84-17.47,17.47-17.47h.97l9.68-42.97-20.89,3.46c-.72.11-1.36.15-1.98.14-3.04-.06-5.89-1.3-8-3.49s-3.25-5.08-3.19-8.13c0-4.66,2.1-9.14,5.76-12.19l29.31-24.45-5.1-20.46c-.49-1.97.13-4.05,1.61-5.43,1.49-1.38,3.6-1.85,5.53-1.22l32.99,10.79s.03,0,.04.01c26.23,8.81,41.29,35.73,35.1,62.67l-6.65,41.64c7.89,1.68,13.83,8.7,13.83,17.09v5.95c0,3.08-2.5,5.57-5.57,5.57ZM32.88,132.85h84.18v-.37c0-3.48-2.83-6.32-6.32-6.32H39.2c-3.48,0-6.32,2.83-6.32,6.32v.37ZM51.6,114.98h51.56l6.9-43.18c.02-.13.05-.26.08-.39,4.99-21.37-6.93-42.76-27.73-49.76l-23.38-7.65,3.51,14.07c.52,2.07-.2,4.26-1.84,5.63l-32,26.69c-1.12.93-1.75,2.28-1.75,3.72,0,.25.11.37.25.37l29-4.8c1.83-.3,3.69.32,4.96,1.67,1.27,1.35,1.79,3.24,1.38,5.05l-10.94,48.57Z"/>
</svg>