<?xml version="1.0" encoding="UTF-8"?>
<svg id="Calque_1" data-name="Calque 1" xmlns="http://www.w3.org/2000/svg" viewBox="0 0 144 144">
  <defs>
    <style>
      .cls-1 {
        fill: #cfcfcf;
      }
    </style>
  </defs>
  <g id="Icon_akar-circle-check" data-name="Icon akar-circle-check">
    <path class="cls-1" d="M61.95,109.79c-1.33,0-2.61-.53-3.55-1.47l-30.14-30.14c-1.96-1.96-1.96-5.14,0-7.1,1.96-1.96,5.14-1.96,7.1,0l26.25,26.25,46.71-56.05c1.78-2.13,4.94-2.42,7.07-.64,2.13,1.78,2.42,4.94.64,7.07l-50.23,60.28c-.9,1.08-2.22,1.74-3.63,1.8-.08,0-.15,0-.23,0Z"/>
    <path class="cls-1" d="M72,144C32.3,144,0,111.7,0,72S32.3,0,72,0s72,32.3,72,72-32.3,72-72,72ZM72,10.05c-34.16,0-61.95,27.79-61.95,61.95s27.79,61.95,61.95,61.95,61.95-27.79,61.95-61.95S106.16,10.05,72,10.05Z"/>
  </g>
</svg>