<?xml version="1.0" encoding="UTF-8"?>
<svg id="Calque_1" data-name="Calque 1" xmlns="http://www.w3.org/2000/svg" viewBox="0 0 144 144">
  <defs>
    <style>
      .cls-1 {
        fill: #fff;
      }
    </style>
  </defs>
  <path class="cls-1" d="M140.98,39.05c-.82-2.91-2.4-5.54-4.6-7.62-2.25-2.14-5.02-3.67-8.03-4.45-11.27-2.97-56.4-2.97-56.4-2.97-18.82-.21-37.63.73-56.33,2.82-3.01.84-5.77,2.4-8.03,4.56-2.22,2.14-3.83,4.77-4.67,7.65C.91,49.91-.07,60.95,0,72c-.07,11.04.91,22.08,2.93,32.96.82,2.87,2.42,5.5,4.65,7.61,2.23,2.12,5,3.65,8.04,4.46,11.42,2.96,56.33,2.96,56.33,2.96,18.84.21,37.68-.73,56.4-2.82,3.01-.78,5.77-2.31,8.03-4.45,2.22-2.12,3.8-4.75,4.59-7.62,2.07-10.86,3.08-21.91,3.01-32.97.16-11.11-.85-22.2-3-33.1h0ZM57.61,92.54v-41.08l37.55,20.54-37.55,20.54Z"/>
</svg>