<?xml version="1.0" encoding="UTF-8"?>
<svg id="Calque_1" data-name="Calque 1" xmlns="http://www.w3.org/2000/svg" viewBox="0 0 1920 290.65">
  <defs>
    <style>
      .cls-1 {
        fill: #fff;
      }
    </style>
  </defs>
  <path class="cls-1" d="M138.99.34c12.72-1.06,28.53.39,40.89,3.43,10.54,2.59,25.01,8.35,34.38,13.96,5.27,3.15,8.96,7.63,10.42,13.65,1.42,5.88.06,12.33-3.08,17.44-2.31,3.75-5.6,6.79-9.51,8.8-11.64,5.91-20.57-1.13-30.83-5.78-2.72-1.23-5.55-2.08-8.45-2.77-16.74-4.03-34.19-4.07-50.95-.1-26.18,6.44-48.71,23.05-62.59,46.16-13.31,21.89-17.38,48.17-11.3,73.05,6.33,25.76,22.64,49.39,45.45,63.17,21.91,13.24,50.57,17.38,75.47,11.2,39.86-9.91,70.5-40.42,75.55-82.04,1.26-10.42-.85-24.88,4.71-33.98,3.12-5.11,8.57-8.78,14.35-10.19,5.9-1.45,11.6-.46,16.77,2.66.99.72,1.95,1.49,2.87,2.29,6.09,5.3,8.4,13.23,8.95,21.02,2.42,34.45-15.84,74.95-38.25,100.62-24.93,28.19-60.09,45.27-97.66,47.44-38.82,2.41-77.04-10.48-106.47-35.91C21.51,229.76,2.73,193.24.31,155.71c-2.53-38.54,10.51-76.48,36.19-105.34C62.6,20.66,99.51,2.64,138.99.34Z"/>
  <path class="cls-1" d="M143.17,77.25c36.6-3.33,68.96,23.64,72.29,60.24,3.33,36.6-23.64,68.96-60.24,72.29-36.59,3.33-68.96-23.64-72.28-60.24-3.33-36.59,23.64-68.96,60.23-72.29Z"/>
  <path class="cls-1" d="M542,68.13v160.54h-37.9l-63.5-92.69v92.69h-37.13V68.13h37.64l63.76,96.28v-96.28h37.13ZM672.01,191.54v37.13h-110.61V68.13h108.31v35.85h-68.62v26.63h59.15v33.29h-59.15v27.65h70.93ZM803.59,68.13v35.85h-43.79v124.7h-39.69v-124.7h-43.79v-35.85h127.26ZM939.32,163.57c-6.2,13.31-13.31,24.73-21.32,34.25l17.01,23.59-30.62,16.11-12.48-17.24c-13.16,7.71-27.75,11.57-43.78,11.57-17.54,0-30.85-4.84-39.92-14.52-8.92-9.68-12.02-21.7-9.3-36.07,3.78-18.75,15.27-33.27,34.48-43.55-4.08-8.92-5.29-18.22-3.63-27.9,2.27-13.31,8.55-23.82,18.83-31.53,10.43-7.71,22.99-11.57,37.66-11.57,25.4,0,41.96,11.57,49.68,34.71l-33.12,17.47c-3.63-11.19-10.21-16.79-19.74-16.79-4.54,0-8.47,1.21-11.8,3.63-3.33,2.42-5.29,5.9-5.9,10.43-.45,3.63,0,7.03,1.36,10.21,1.51,3.02,4.01,6.88,7.49,11.57l23.59,32.44c4.23-7.11,8.17-15.43,11.8-24.95l29.72,18.15ZM856.29,198.73c5.9,0,11.57-1.29,17.01-3.86l-22.68-31.08-1.81-2.49c-7.26,4.69-11.57,10.81-12.93,18.37-.91,5.44.38,9.98,3.86,13.61,3.48,3.63,9,5.44,16.56,5.44ZM1025.65,194.11c6.83,0,14.25-.68,22.28-2.05,8.02-1.54,15.19-3.5,21.51-5.89v35.08c-9.39,3.76-17.84,6.32-25.35,7.68-7.51,1.54-15.36,2.3-23.56,2.3-14.85,0-26.72-1.71-35.59-5.12-8.88-3.41-15.96-8.88-21.25-16.39-4.44-6.49-7.77-14.77-9.99-24.84-2.05-10.07-3.07-22.28-3.07-36.62,0-28.68,6.14-49.59,18.44-62.73,12.46-13.31,32.18-19.97,59.15-19.97,7.85,0,14.85.17,21,.51,6.14.34,11.69.94,16.64,1.79v34.57c-5.63-.34-11.52-.6-17.67-.77-5.97-.17-12.63-.26-19.97-.26-9.39,0-16.39.94-20.99,2.82-4.44,1.71-7.77,4.78-9.99,9.22-2.05,3.41-3.5,7.94-4.35,13.57-.85,5.63-1.28,12.72-1.28,21.25,0,8.02.34,14.77,1.02,20.23.85,5.29,2.13,9.73,3.84,13.31,2.22,4.44,5.46,7.6,9.73,9.47,4.27,1.88,10.75,2.82,19.46,2.82ZM1225.36,148.27c0,29.19-5.97,50.36-17.92,63.5-11.78,12.97-30.98,19.46-57.61,19.46s-47.37-6.14-58.64-18.44c-11.27-12.29-16.9-33.8-16.9-64.52s5.89-50.27,17.67-63.24c11.95-12.97,31.24-19.46,57.87-19.46s47.37,6.15,58.64,18.44c11.27,12.29,16.9,33.71,16.9,64.27ZM1119.35,182.58c2.22,4.27,5.46,7.25,9.73,8.96,4.44,1.71,11.35,2.56,20.74,2.56s16.22-.85,20.48-2.56c4.44-1.71,7.77-4.7,9.98-8.96,1.71-3.41,2.9-7.85,3.59-13.31.85-5.46,1.28-12.46,1.28-21s-.43-15.79-1.28-21.25c-.68-5.63-1.88-10.16-3.59-13.57-2.05-4.44-5.29-7.51-9.73-9.22-4.27-1.88-11.18-2.82-20.74-2.82s-16.56.94-21,2.82c-4.27,1.71-7.42,4.78-9.47,9.22-1.71,3.41-2.99,7.94-3.84,13.57-.68,5.46-1.02,12.55-1.02,21.25s.34,15.53,1.02,21c.85,5.46,2.13,9.9,3.84,13.31ZM1377.85,68.13v160.54h-37.9l-63.5-92.69v92.69h-37.13V68.13h37.64l63.76,96.28v-96.28h37.13ZM1535.76,68.13v160.54h-37.9l-63.5-92.69v92.69h-37.13V68.13h37.64l63.76,96.28v-96.28h37.13ZM1665.76,191.54v37.13h-110.61V68.13h108.31v35.85h-68.62v26.63h59.15v33.29h-59.15v27.65h70.93ZM1746.69,194.11c6.83,0,14.25-.68,22.28-2.05,8.02-1.54,15.19-3.5,21.51-5.89v35.08c-9.39,3.76-17.84,6.32-25.35,7.68-7.51,1.54-15.36,2.3-23.56,2.3-14.85,0-26.72-1.71-35.59-5.12-8.88-3.41-15.96-8.88-21.25-16.39-4.44-6.49-7.77-14.77-9.98-24.84-2.05-10.07-3.07-22.28-3.07-36.62,0-28.68,6.14-49.59,18.44-62.73,12.46-13.31,32.18-19.97,59.15-19.97,7.85,0,14.85.17,21,.51,6.14.34,11.69.94,16.64,1.79v34.57c-5.63-.34-11.52-.6-17.67-.77-5.97-.17-12.63-.26-19.97-.26-9.39,0-16.39.94-20.99,2.82-4.44,1.71-7.77,4.78-9.99,9.22-2.05,3.41-3.5,7.94-4.35,13.57-.85,5.63-1.28,12.72-1.28,21.25,0,8.02.34,14.77,1.02,20.23.85,5.29,2.13,9.73,3.84,13.31,2.22,4.44,5.46,7.6,9.73,9.47,4.27,1.88,10.75,2.82,19.46,2.82ZM1920,68.13v35.85h-43.79v124.7h-39.69v-124.7h-43.79v-35.85h127.26Z"/>
</svg>