<?xml version="1.0" encoding="UTF-8"?>
<svg id="Calque_1" data-name="Calque 1" xmlns="http://www.w3.org/2000/svg" viewBox="0 0 144 144">
  <defs>
    <style>
      .cls-1 {
        fill: #cfcfcf;
      }
    </style>
  </defs>
  <path id="Icon_fa-solid-star" data-name="Icon fa-solid-star" class="cls-1" d="M79.81,7.08c-2.12-4.34-7.36-6.13-11.69-4.01-1.75.85-3.16,2.27-4.01,4.01l-17.56,36.06-39.1,5.81c-4.77.72-8.06,5.16-7.34,9.93.28,1.86,1.15,3.58,2.49,4.91l28.41,28.12-6.71,39.74c-.79,4.77,2.43,9.27,7.2,10.06,1.89.31,3.84,0,5.53-.9l34.99-18.69,34.99,18.69c4.27,2.27,9.57.64,11.83-3.63.9-1.7,1.22-3.64.9-5.53l-6.74-39.74,28.41-28.12c3.43-3.39,3.45-8.92.06-12.35-1.33-1.34-3.05-2.21-4.91-2.49l-39.21-5.81L79.81,7.08Z"/>
</svg>