<?xml version="1.0" encoding="UTF-8"?>
<svg id="Calque_1" data-name="Calque 1" xmlns="http://www.w3.org/2000/svg" viewBox="0 0 144 144">
  <defs>
    <style>
      .cls-1 {
        fill: #cfcfcf;
      }
    </style>
  </defs>
  <g id="Icon_akar-person-add" data-name="Icon akar-person-add">
    <path class="cls-1" d="M71.13,78.55c-21.66,0-39.27-17.62-39.27-39.27S49.47,0,71.13,0s39.27,17.62,39.27,39.27-17.62,39.27-39.27,39.27ZM71.13,13.09c-14.44,0-26.18,11.75-26.18,26.18s11.74,26.18,26.18,26.18,26.18-11.75,26.18-26.18-11.74-26.18-26.18-26.18Z"/>
    <path class="cls-1" d="M103.85,144H27.06c-10.83,0-19.64-8.81-19.64-19.64,0-.81.05-1.63.15-2.43l2.55-20.45c1.63-13.08,12.8-22.94,25.98-22.94h2.3c3.61,0,6.55,2.93,6.55,6.55s-2.93,6.55-6.55,6.55h-2.3c-6.59,0-12.17,4.93-12.99,11.47l-2.55,20.45c-.03.27-.05.54-.05.81,0,3.61,2.94,6.55,6.55,6.55h76.8c3.61,0,6.55,2.93,6.55,6.55s-2.93,6.55-6.55,6.55ZM116.95,117.82c-3.61,0-6.55-2.93-6.55-6.55v-6.55h-6.55c-3.61,0-6.55-2.93-6.55-6.55s2.93-6.55,6.55-6.55h6.55v-6.55c0-3.61,2.93-6.55,6.55-6.55s6.55,2.93,6.55,6.55v6.55h6.54c3.61,0,6.55,2.93,6.55,6.55s-2.93,6.55-6.55,6.55h-6.54v6.55c0,3.61-2.93,6.55-6.55,6.55Z"/>
  </g>
</svg>