<?xml version="1.0" encoding="UTF-8"?>
<svg id="Calque_1" data-name="Calque 1" xmlns="http://www.w3.org/2000/svg" viewBox="0 0 144 144">
  <defs>
    <style>
      .cls-1 {
        fill: #fff;
      }
    </style>
  </defs>
  <path class="cls-1" d="M59.34,123.7H0v-55.92L29.69,21.15c.77-1.6,4.06-.7,4.06.68v44.26h24.61c.75,0,2.04.88,2.26,1.67l.14,53.56c.09,1.16-.59,1.75-1.42,2.38ZM4.5,119.2h51.74v-48.33h-24.89c-.54,0-2.11-1.31-2.11-1.83V30.41L4.5,69.04v50.16Z"/>
  <path class="cls-1" d="M84.64,123.7c-.83-.63-1.51-1.22-1.42-2.38l.14-53.55,29.55-46.62c.77-1.6,4.06-.7,4.06.68v44.26h24.61c.75,0,2.04.88,2.26,1.67l.14,53.56c.09,1.16-.59,1.75-1.42,2.38h-57.93ZM87.74,119.2h51.74v-48.33h-24.89c-.54,0-2.11-1.31-2.11-1.83V30.41l-24.75,38.64v50.16Z"/>
</svg>